<svg width="16" height="16" viewBox="0 0 16 16" fill="none" xmlns="http://www.w3.org/2000/svg">
<path d="M0.921311 13.7212C0.546412 14.0961 0.546412 14.7039 0.921311 15.0788C1.29621 15.4537 1.90406 15.4537 2.27896 15.0788L0.921311 13.7212ZM8.67892 8.6788C9.05383 8.30388 9.05383 7.69614 8.67892 7.32123C8.30401 6.94632 7.69626 6.94632 7.32135 7.32123L8.67892 8.6788ZM7.32135 7.32123C6.94644 7.69614 6.94644 8.30388 7.32135 8.6788C7.69626 9.05371 8.30401 9.05371 8.67892 8.6788L7.32135 7.32123ZM15.0789 2.27883C15.4538 1.90394 15.4538 1.29609 15.0789 0.921189C14.704 0.54629 14.0963 0.54629 13.7214 0.921189L15.0789 2.27883ZM8.67892 7.32123C8.30401 6.94632 7.69626 6.94632 7.32135 7.32123C6.94644 7.69614 6.94644 8.30388 7.32135 8.6788L8.67892 7.32123ZM13.7214 15.0788C14.0963 15.4537 14.704 15.4537 15.0789 15.0788C15.4538 14.7039 15.4538 14.0961 15.0789 13.7212L13.7214 15.0788ZM7.32135 8.6788C7.69626 9.05371 8.30401 9.05371 8.67892 8.6788C9.05383 8.30388 9.05383 7.69614 8.67892 7.32123L7.32135 8.6788ZM2.27896 0.921189C1.90406 0.54629 1.29621 0.54629 0.921311 0.921189C0.546412 1.29609 0.546412 1.90394 0.921311 2.27883L2.27896 0.921189ZM2.27896 15.0788L8.67892 8.6788L7.32135 7.32123L0.921311 13.7212L2.27896 15.0788ZM8.67892 8.6788L15.0789 2.27883L13.7214 0.921189L7.32135 7.32123L8.67892 8.6788ZM7.32135 8.6788L13.7214 15.0788L15.0789 13.7212L8.67892 7.32123L7.32135 8.6788ZM8.67892 7.32123L2.27896 0.921189L0.921311 2.27883L7.32135 8.6788L8.67892 7.32123Z" fill="#64748E"/>
</svg>