<svg width="19" height="19" viewBox="0 0 19 19" fill="none" xmlns="http://www.w3.org/2000/svg">
<g clip-path="url(#clip0_29_138)">
<path d="M1.72559 10.3646H0V13.8195H1.72559V10.3646ZM10.3646 1.72559H13.8195V0H10.3646V1.72559ZM10.3646 19H13.8195V17.2744H10.3646V19ZM1.72559 15.5451H0V19H3.45488V17.2744H1.72559V15.5451ZM5.18047 19H8.63535V17.2744H5.18047V19ZM15.5451 0V1.72559H17.2707V3.45117H19V0H15.5451ZM17.2744 8.63535H19V5.18047H17.2744V8.63535ZM17.2744 17.2744H15.5488V19H19V15.5451H17.2744V17.2744ZM17.2744 13.8195H19V10.3646H17.2744V13.8195ZM0 8.63535H8.63535V0H0V8.63535Z" fill="white" fill-opacity="0.7"/>
</g>
<defs>
<clipPath id="clip0_29_138">
<rect width="19" height="19" fill="white"/>
</clipPath>
</defs>
</svg>