<svg fill="none" xmlns="http://www.w3.org/2000/svg" viewBox="0 0 14 14"> <g clip-path="url(#clip0_225_19)"> <path d="M11.8125 0C13.0206 0 14 0.979377 14 2.1875V8.3125C14 9.52062 13.0206 10.5 11.8125 10.5H10.5V11.9583C10.5 13.0546 9.63599 13.9491 8.55179 13.9979L8.45833 14H2.04167C0.945407 14 0.0509473 13.136 0.00210092 12.0518L0 11.9583V5.54167C0 4.44541 0.864008 3.55095 1.94821 3.5021L2.04167 3.5H3.5V2.1875C3.5 0.979377 4.47938 0 5.6875 0H11.8125ZM3.5 4.375H2.04167C1.42212 4.375 0.91536 4.85793 0.877295 5.46788L0.875 5.54167V11.9583C0.875 12.5779 1.35793 13.0846 1.96788 13.1227L2.04167 13.125H8.45833C9.07788 13.125 9.58464 12.6421 9.6227 12.0321L9.625 11.9583V10.5H5.6875C4.47938 10.5 3.5 9.52062 3.5 8.3125V4.375ZM11.8125 0.875H5.6875C4.98851 0.875 4.41715 1.4214 4.37723 2.11038L4.375 2.1875V8.3125C4.375 9.01149 4.9214 9.58285 5.61038 9.62277L5.6875 9.625H11.8125C12.5115 9.625 13.0829 9.0786 13.1228 8.38962L13.125 8.3125V2.1875C13.125 1.48851 12.5786 0.917148 11.8896 0.877228L11.8125 0.875Z" fill="#64748E"></path> </g> <defs> <clipPath id="clip0_225_19"> <rect width="14" height="14" fill="white"></rect> </clipPath> </defs> </svg>