<svg width="20" height="20" viewBox="0 0 20 20" fill="none" xmlns="http://www.w3.org/2000/svg">
<path d="M5.57564 13.5758C5.34132 13.8101 5.34132 14.1899 5.57564 14.4242C5.80995 14.6586 6.18985 14.6586 6.42416 14.4242L5.57564 13.5758ZM10.4241 10.4242C10.6585 10.1899 10.6585 9.81009 10.4241 9.57577C10.1898 9.34145 9.80998 9.34145 9.57566 9.57577L10.4241 10.4242ZM9.57566 9.57577C9.34134 9.81009 9.34134 10.1899 9.57566 10.4242C9.80998 10.6586 10.1898 10.6586 10.4241 10.4242L9.57566 9.57577ZM14.4241 6.42427C14.6585 6.18996 14.6585 5.81006 14.4241 5.57574C14.1898 5.34143 13.81 5.34143 13.5757 5.57574L14.4241 6.42427ZM10.4241 9.57577C10.1898 9.34145 9.80998 9.34145 9.57566 9.57577C9.34134 9.81009 9.34134 10.1899 9.57566 10.4242L10.4241 9.57577ZM13.5757 14.4242C13.81 14.6586 14.1898 14.6586 14.4241 14.4242C14.6585 14.1899 14.6585 13.8101 14.4241 13.5758L13.5757 14.4242ZM9.57566 10.4242C9.80998 10.6586 10.1898 10.6586 10.4241 10.4242C10.6585 10.1899 10.6585 9.81009 10.4241 9.57577L9.57566 10.4242ZM6.42416 5.57574C6.18985 5.34143 5.80995 5.34143 5.57564 5.57574C5.34132 5.81006 5.34132 6.18996 5.57564 6.42427L6.42416 5.57574ZM6.42416 14.4242L10.4241 10.4242L9.57566 9.57577L5.57564 13.5758L6.42416 14.4242ZM10.4241 10.4242L14.4241 6.42427L13.5757 5.57574L9.57566 9.57577L10.4241 10.4242ZM9.57566 10.4242L13.5757 14.4242L14.4241 13.5758L10.4241 9.57577L9.57566 10.4242ZM10.4241 9.57577L6.42416 5.57574L5.57564 6.42427L9.57566 10.4242L10.4241 9.57577Z" fill="#C7C7C7"/>
</svg>