<svg width="30" height="30" viewBox="0 0 30 30" fill="none" xmlns="http://www.w3.org/2000/svg">
<path d="M14.9999 18.3463C14.8493 18.3463 14.7091 18.3222 14.5793 18.2741C14.4495 18.226 14.3261 18.1435 14.209 18.0266L8.59119 12.4088C8.41827 12.2356 8.32973 12.018 8.32557 11.756C8.32161 11.4941 8.41015 11.2725 8.59119 11.0913C8.77244 10.9102 8.99202 10.8197 9.24994 10.8197C9.50786 10.8197 9.72744 10.9102 9.90869 11.0913L14.9999 16.1828L20.0912 11.0913C20.2643 10.9183 20.4819 10.8298 20.744 10.8256C21.0059 10.8217 21.2274 10.9102 21.4087 11.0913C21.5897 11.2725 21.6803 11.4921 21.6803 11.75C21.6803 12.0079 21.5897 12.2275 21.4087 12.4088L15.7909 18.0266C15.6738 18.1435 15.5504 18.226 15.4206 18.2741C15.2908 18.3222 15.1506 18.3463 14.9999 18.3463Z" fill="#E8EAED"/>
</svg>