<svg fill="none" xmlns="http://www.w3.org/2000/svg" viewBox="0.94 0.59 12.68 13.78"> <path d="M2.54665 1.87116C2.58305 1.22735 2.73684 0.947387 3.17785 0.722568C3.65239 0.480592 4.40082 0.5932 5.28149 1.03916C5.66082 1.23134 5.69944 1.23525 6.36422 1.15002C7.24784 1.03669 8.3854 1.03709 9.20097 1.15106C9.81772 1.23724 9.85822 1.23294 10.2385 1.04036C11.4885 0.40733 12.4755 0.448749 12.8328 1.14922C13.0112 1.49886 13.0443 2.4061 12.906 3.15437C12.8293 3.56921 12.8375 3.62101 13.0222 3.89323C14.322 5.80869 13.3855 8.91353 11.1582 10.0722C10.9877 10.1609 10.8441 10.2158 10.727 10.2605C10.3676 10.3977 10.2585 10.4394 10.3906 11.0712C10.4542 11.375 10.5308 12.1305 10.561 12.7502C10.6154 13.8702 10.6146 13.878 10.4182 14.1065C10.1508 14.4173 9.7654 14.4225 9.50428 14.1189C9.33397 13.9209 9.31734 13.8274 9.31734 13.0635C9.31734 11.9345 9.19359 11.1842 8.90122 10.5412C8.55353 9.77597 8.81128 9.49066 9.6064 9.31966C10.7116 9.08191 11.5748 8.39984 12.0559 7.38416C12.5133 6.41866 12.5823 5.08441 11.7553 4.27296C11.5201 3.99347 11.5037 3.74032 11.6717 2.97696C11.7344 2.69166 11.787 2.32358 11.7886 2.15894C11.791 1.89892 11.7673 1.85966 11.6076 1.85966C11.5065 1.85966 11.1204 2.00667 10.7497 2.18631L10.1579 2.47312C10.1041 2.49919 10.0439 2.50922 9.98453 2.50241C8.47984 2.32969 7.05009 2.32702 5.53804 2.50308C5.47844 2.51002 5.41799 2.49999 5.364 2.47379L4.77256 2.18679C4.40177 2.00682 4.01567 1.85966 3.91464 1.85966C3.68104 1.85966 3.67752 2.03212 3.89045 3.05677C4.02052 3.68255 4.10804 3.82199 3.73204 4.32236C3.16844 5.07238 3.02765 6.00373 3.32989 6.98228C3.7108 8.21541 4.64359 9.04847 5.95499 9.32641C6.74553 9.49397 6.95215 9.71259 6.65028 10.6191C6.41265 11.3325 6.2624 11.5163 5.91707 11.5163C5.45244 11.5163 5.16138 11.1138 5.32155 10.6927C5.3921 10.507 5.37112 10.4872 4.93585 10.3285C3.60714 9.84403 2.59087 8.75822 2.12623 7.32647C1.7671 6.21993 1.92512 4.77965 2.50125 3.90911C2.69741 3.61271 2.70045 3.58757 2.6089 3.02014C2.55711 2.69892 2.5291 2.18192 2.54665 1.87116Z" fill="#64748E"></path> <path d="M2.0826 9.96587C1.89113 9.67868 1.50308 9.60105 1.21588 9.79255C0.928677 9.98399 0.851064 10.3721 1.04253 10.6592C1.18389 10.8713 1.353 11.0455 1.4966 11.1891C1.52308 11.2156 1.5488 11.2411 1.57392 11.2661C1.69421 11.3856 1.80043 11.4911 1.9071 11.6163C2.14305 11.8932 2.37843 12.2662 2.5122 12.9351C2.57179 13.2331 2.78595 13.3936 2.90461 13.4637C3.0333 13.5397 3.1739 13.5845 3.28961 13.6137C3.5263 13.6734 3.81363 13.7044 4.08632 13.7224C4.38567 13.7423 4.71003 13.7487 5.00007 13.7505C5.00028 14.0954 5.28002 14.3751 5.62506 14.3751C5.97025 14.3751 6.25006 14.0952 6.25006 13.7501V13.1251C6.25006 12.7799 5.97025 12.5001 5.62506 12.5001C5.56615 12.5001 5.5024 12.5002 5.43488 12.5005C5.0681 12.5016 4.59 12.5031 4.16894 12.4752C3.9659 12.4617 3.79898 12.4427 3.67658 12.4194C3.4881 11.6794 3.18359 11.1871 2.85866 10.8057C2.71502 10.6371 2.56628 10.4896 2.4453 10.3696C2.42265 10.3472 2.40098 10.3257 2.38048 10.3052C2.24089 10.1656 2.14958 10.0664 2.0826 9.96587Z" fill="#64748E"></path> </svg>