<svg width="32" height="32" viewBox="0 0 32 32" fill="none" xmlns="http://www.w3.org/2000/svg">
<path fill-rule="evenodd" clip-rule="evenodd" d="M16.0002 3.85774L11.7575 8.10038L13.1718 9.5146L15.0002 7.68617V14.9999H7.68662L9.51501 13.1715L8.10079 11.7572L3.85815 15.9999L8.10079 20.2425L9.51501 18.8283L7.68655 16.9999H15.0002V24.3136L13.1718 22.4852L11.7575 23.8993L16.0002 28.142L20.2428 23.8993L18.8286 22.4852L17.0002 24.3136V16.9999H24.3138L22.4853 18.8284L23.8996 20.2425L28.1422 15.9999L23.8996 11.7573L22.4853 13.1715L24.3137 14.9999H17.0002V7.68617L18.8286 9.5146L20.2428 8.10038L16.0002 3.85774Z" fill="#C7C7C7"/>
</svg>