<svg width="19" height="19" viewBox="0 0 19 19" fill="none" xmlns="http://www.w3.org/2000/svg">
<path d="M9.57409 16.7971C7.80603 16.7971 6.30187 16.1836 5.06159 14.9565C3.82131 13.7294 3.20117 12.2318 3.20117 10.4638V10.3252L1.93451 11.5919L0.826172 10.4836L3.99284 7.31689L7.15951 10.4836L6.05117 11.5919L4.78451 10.3252V10.4638C4.78451 11.7832 5.24961 12.9047 6.17982 13.8283C7.11003 14.752 8.24145 15.2138 9.57409 15.2138C9.91714 15.2138 10.2536 15.1742 10.5835 15.095C10.9133 15.0158 11.2366 14.8971 11.5533 14.7388L12.7408 15.9263C12.2394 16.2165 11.7248 16.4343 11.197 16.5794C10.6692 16.7245 10.1283 16.7971 9.57409 16.7971ZM15.0762 13.6106L11.9095 10.444L13.0178 9.33564L14.2845 10.6023V10.4638C14.2845 9.14432 13.8194 8.02279 12.8892 7.09918C11.959 6.17557 10.8276 5.71377 9.49492 5.71377C9.15187 5.71377 8.81541 5.75335 8.48555 5.83252C8.15569 5.91168 7.83242 6.03043 7.51576 6.18877L6.32826 5.00127C6.82964 4.71099 7.34423 4.49328 7.87201 4.34814C8.39978 4.203 8.94076 4.13043 9.49492 4.13043C11.263 4.13043 12.7671 4.74397 14.0074 5.97106C15.2477 7.19814 15.8678 8.69571 15.8678 10.4638V10.6023L17.1345 9.33564L18.2428 10.444L15.0762 13.6106Z" fill="#64748E"/>
</svg>