<svg width="37" height="34" viewBox="0 0 37 34" fill="none" xmlns="http://www.w3.org/2000/svg">
<rect x="0.5" y="0.5" width="36" height="33" rx="1.5" fill="#20242B" stroke="#2F343D"/>
<path d="M18.5741 23.7972C16.806 23.7972 15.3019 23.1836 14.0616 21.9565C12.8213 20.7295 12.2012 19.2319 12.2012 17.4638V17.3253L10.9345 18.592L9.82617 17.4836L12.9928 14.317L16.1595 17.4836L15.0512 18.592L13.7845 17.3253V17.4638C13.7845 18.7833 14.2496 19.9048 15.1798 20.8284C16.11 21.752 17.2415 22.2138 18.5741 22.2138C18.9171 22.2138 19.2536 22.1742 19.5835 22.0951C19.9133 22.0159 20.2366 21.8972 20.5533 21.7388L21.7408 22.9263C21.2394 23.2166 20.7248 23.4343 20.197 23.5795C19.6692 23.7246 19.1283 23.7972 18.5741 23.7972ZM24.0762 20.6107L20.9095 17.444L22.0178 16.3357L23.2845 17.6024V17.4638C23.2845 16.1444 22.8194 15.0229 21.8892 14.0992C20.959 13.1756 19.8276 12.7138 18.4949 12.7138C18.1519 12.7138 17.8154 12.7534 17.4855 12.8326C17.1557 12.9117 16.8324 13.0305 16.5158 13.1888L15.3283 12.0013C15.8296 11.711 16.3442 11.4933 16.872 11.3482C17.3998 11.2031 17.9408 11.1305 18.4949 11.1305C20.263 11.1305 21.7671 11.744 23.0074 12.9711C24.2477 14.1982 24.8678 15.6958 24.8678 17.4638V17.6024L26.1345 16.3357L27.2428 17.444L24.0762 20.6107Z" fill="#64748E"/>
</svg>
