<svg width="10" height="10" viewBox="0 0 10 10" fill="none" xmlns="http://www.w3.org/2000/svg">
<path d="M8.73624 9.77761L1.54596 9.77761C1.44679 9.77761 1.35587 9.76108 1.27323 9.72802C1.19058 9.69496 1.1162 9.64537 1.05008 9.57926C0.917846 9.44702 0.847596 9.28586 0.839331 9.09577C0.831066 8.90568 0.901316 8.73626 1.05008 8.58749L8.58748 1.0501C8.73624 0.901331 8.90567 0.831081 9.09576 0.839346C9.28584 0.847611 9.44701 0.917861 9.57924 1.0501C9.6123 1.08315 9.67842 1.24845 9.77759 1.54598L9.77759 8.73626C9.77759 8.90155 9.7528 9.04205 9.70321 9.15776C9.65362 9.27346 9.57924 9.3809 9.48006 9.48008C9.38089 9.57926 9.27345 9.65364 9.15774 9.70323C9.04204 9.75281 8.90154 9.77761 8.73624 9.77761Z" fill="#C7C7C7"/>
</svg>