<svg width="14" height="14" viewBox="0 0 14 14" fill="none" xmlns="http://www.w3.org/2000/svg">
<path fill-rule="evenodd" clip-rule="evenodd" d="M10.7323 0C11.0638 0 11.3817 0.131694 11.6161 0.366119L13.3839 2.13388C13.6183 2.36831 13.75 2.68624 13.75 3.01777V11.875C13.75 12.9106 12.9106 13.75 11.875 13.75H1.875C0.839469 13.75 0 12.9106 0 11.875V1.875C0 0.839469 0.839469 0 1.875 0H10.7323ZM1.875 1.25C1.52982 1.25 1.25 1.52982 1.25 1.875V11.875C1.25 12.2202 1.52982 12.5 1.875 12.5H2.5V8.75C2.5 7.71444 3.33947 6.875 4.375 6.875H9.375C10.4106 6.875 11.25 7.71444 11.25 8.75V12.5H11.875C12.2202 12.5 12.5 12.2202 12.5 11.875V3.64277C12.5 3.31124 12.3683 2.99331 12.1339 2.75888L10.9911 1.61612C10.7567 1.38169 10.4388 1.25 10.1073 1.25H10V2.5C10 3.53553 9.16056 4.375 8.125 4.375H5.625C4.58947 4.375 3.75 3.53553 3.75 2.5V1.25H1.875ZM10 12.5V8.75C10 8.40481 9.72019 8.125 9.375 8.125H4.375C4.02983 8.125 3.75 8.40481 3.75 8.75V12.5H10ZM5 1.25H8.75V2.5C8.75 2.84518 8.47019 3.125 8.125 3.125H5.625C5.27983 3.125 5 2.84518 5 2.5V1.25Z" fill="#64748E"/>
</svg>