<svg width="13" height="15" viewBox="0 0 13 15" fill="none" xmlns="http://www.w3.org/2000/svg">
<path d="M2.7853 14.2292C2.39171 14.2292 2.05479 14.0891 1.77454 13.8088C1.49429 13.5286 1.35417 13.1917 1.35417 12.7981V2.75003H1.15625C0.988021 2.75003 0.847038 2.6931 0.733302 2.57923C0.619434 2.46536 0.5625 2.32432 0.5625 2.15609C0.5625 1.98772 0.619434 1.84674 0.733302 1.73314C0.847038 1.6194 0.988021 1.56253 1.15625 1.56253H4.125C4.125 1.36871 4.19328 1.20351 4.32984 1.06695C4.46627 0.93052 4.6314 0.862305 4.82523 0.862305H8.17477C8.3686 0.862305 8.53373 0.93052 8.67016 1.06695C8.80672 1.20351 8.875 1.36871 8.875 1.56253H11.8438C12.012 1.56253 12.153 1.61947 12.2667 1.73334C12.3806 1.8472 12.4375 1.98825 12.4375 2.15648C12.4375 2.32484 12.3806 2.46583 12.2667 2.57943C12.153 2.69317 12.012 2.75003 11.8438 2.75003H11.6458V12.7981C11.6458 13.1917 11.5057 13.5286 11.2255 13.8088C10.9452 14.0891 10.6083 14.2292 10.2147 14.2292H2.7853ZM10.4583 2.75003H2.54167V12.7981C2.54167 12.8692 2.56449 12.9276 2.61015 12.9732C2.6558 13.0189 2.71418 13.0417 2.7853 13.0417H10.2147C10.2858 13.0417 10.3442 13.0189 10.3899 12.9732C10.4355 12.9276 10.4583 12.8692 10.4583 12.7981V2.75003ZM5.03878 11.4584C5.20701 11.4584 5.34799 11.4015 5.46173 11.2878C5.57533 11.1739 5.63214 11.0328 5.63214 10.8646V4.92712C5.63214 4.75889 5.5752 4.61784 5.46133 4.50397C5.3476 4.39024 5.20655 4.33337 5.03819 4.33337C4.86996 4.33337 4.72898 4.39024 4.61524 4.50397C4.50164 4.61784 4.44483 4.75889 4.44483 4.92712V10.8646C4.44483 11.0328 4.5017 11.1739 4.61544 11.2878C4.72931 11.4015 4.87042 11.4584 5.03878 11.4584ZM7.96181 11.4584C8.13004 11.4584 8.27102 11.4015 8.38476 11.2878C8.49836 11.1739 8.55517 11.0328 8.55517 10.8646V4.92712C8.55517 4.75889 8.4983 4.61784 8.38456 4.50397C8.27069 4.39024 8.12958 4.33337 7.96122 4.33337C7.79299 4.33337 7.65201 4.39024 7.53827 4.50397C7.42467 4.61784 7.36786 4.75889 7.36786 4.92712V10.8646C7.36786 11.0328 7.4248 11.1739 7.53867 11.2878C7.6524 11.4015 7.79345 11.4584 7.96181 11.4584Z" fill="white" fill-opacity="0.7"/>
</svg>
