<svg width="14" height="13" viewBox="0 0 14 13" fill="none" xmlns="http://www.w3.org/2000/svg">
<path d="M7 9.45663C6.88753 9.45663 6.78284 9.43995 6.68593 9.40658C6.58902 9.37336 6.49686 9.31616 6.40943 9.23498L3.50723 6.54008C3.36848 6.41109 3.29996 6.26022 3.30167 6.08747C3.30353 5.91471 3.37206 5.76109 3.50723 5.62662C3.65206 5.49228 3.81834 5.42288 4.0061 5.4184C4.19401 5.41392 4.36038 5.47892 4.5052 5.6134L6.3 7.28V0.65C6.3 0.465544 6.36704 0.311133 6.50113 0.186767C6.63507 0.0622555 6.80136 0 7 0C7.19864 0 7.36493 0.0622555 7.49887 0.186767C7.63296 0.311133 7.7 0.465544 7.7 0.65V7.28L9.4948 5.6134C9.63371 5.48456 9.79852 5.42093 9.98923 5.42252C10.1801 5.42425 10.3479 5.49228 10.4928 5.62662C10.6279 5.76109 10.6979 5.91334 10.7028 6.08335C10.7076 6.25336 10.6376 6.40561 10.4928 6.54008L7.59057 9.23498C7.50314 9.31616 7.41098 9.37336 7.31407 9.40658C7.21716 9.43995 7.11247 9.45663 7 9.45663ZM1.68723 13C1.21574 13 0.816667 12.8483 0.49 12.545C0.163333 12.2417 0 11.8711 0 11.4333V9.73332C0 9.54886 0.0670443 9.39445 0.201133 9.27008C0.335067 9.14557 0.501356 9.08332 0.7 9.08332C0.898644 9.08332 1.06493 9.14557 1.19887 9.27008C1.33296 9.39445 1.4 9.54886 1.4 9.73332V11.4333C1.4 11.5 1.42994 11.5611 1.48983 11.6166C1.54957 11.6722 1.61537 11.7 1.68723 11.7H12.3128C12.3846 11.7 12.4504 11.6722 12.5102 11.6166C12.5701 11.5611 12.6 11.5 12.6 11.4333V9.73332C12.6 9.54886 12.667 9.39445 12.8011 9.27008C12.9351 9.14557 13.1014 9.08332 13.3 9.08332C13.4986 9.08332 13.6649 9.14557 13.7989 9.27008C13.933 9.39445 14 9.54886 14 9.73332V11.4333C14 11.8711 13.8367 12.2417 13.51 12.545C13.1833 12.8483 12.7843 13 12.3128 13H1.68723Z" fill="white" fill-opacity="0.7"/>
</svg>
