<svg width="16" height="16" viewBox="0 0 16 16" fill="none" xmlns="http://www.w3.org/2000/svg">
<path d="M3.53842 13.6667C3.20164 13.6667 2.91659 13.55 2.68325 13.3167C2.44992 13.0833 2.33325 12.7983 2.33325 12.4615V3.53852C2.33325 3.20174 2.44992 2.91668 2.68325 2.68335C2.91659 2.45002 3.20164 2.33335 3.53842 2.33335H8.10642C8.27309 2.33335 8.39809 2.38568 8.48142 2.49035C8.56475 2.59513 8.60642 2.70946 8.60642 2.83335C8.60642 2.95724 8.56303 3.07157 8.47625 3.17635C8.38947 3.28102 8.26275 3.33335 8.09608 3.33335H3.53842C3.48709 3.33335 3.44009 3.35474 3.39742 3.39752C3.35464 3.44018 3.33325 3.48718 3.33325 3.53852V12.4615C3.33325 12.5128 3.35464 12.5598 3.39742 12.6025C3.44009 12.6453 3.48709 12.6667 3.53842 12.6667H12.4614C12.5128 12.6667 12.5598 12.6453 12.6024 12.6025C12.6452 12.5598 12.6666 12.5128 12.6666 12.4615V7.86152C12.6666 7.69485 12.7189 7.56985 12.8236 7.48652C12.9284 7.40318 13.0427 7.36152 13.1666 7.36152C13.2905 7.36152 13.4048 7.40318 13.5096 7.48652C13.6143 7.56985 13.6666 7.69485 13.6666 7.86152V12.4615C13.6666 12.7983 13.5499 13.0833 13.3166 13.3167C13.0833 13.55 12.7982 13.6667 12.4614 13.6667H3.53842ZM6.33325 9.06402V7.87702C6.33325 7.71624 6.36447 7.56174 6.42692 7.41352C6.48925 7.26518 6.57514 7.13635 6.68458 7.02702L12.3731 1.33852C12.4764 1.23507 12.5901 1.15963 12.7141 1.11218C12.838 1.06474 12.964 1.04102 13.0923 1.04102C13.223 1.04102 13.3486 1.06474 13.4691 1.11218C13.5896 1.15963 13.6995 1.2329 13.7986 1.33201L14.6358 2.16668C14.7323 2.27013 14.8065 2.38424 14.8583 2.50901C14.9099 2.63379 14.9358 2.76029 14.9358 2.88852C14.9358 3.01674 14.9138 3.14107 14.8698 3.26152C14.8258 3.38207 14.752 3.49402 14.6486 3.59735L8.94092 9.30518C8.83147 9.41452 8.70264 9.50213 8.55442 9.56802C8.40609 9.63379 8.25159 9.66668 8.09092 9.66668H6.93592C6.76403 9.66668 6.62064 9.60918 6.50575 9.49418C6.39075 9.37929 6.33325 9.2359 6.33325 9.06402ZM7.33325 8.66668H8.16408L12.3191 4.51152L11.9038 4.09618L11.4589 3.66802L7.33325 7.79368V8.66668Z" fill="white" fill-opacity="0.7"/>
</svg>
