<svg width="14" height="14" viewBox="0 0 14 14" fill="none" xmlns="http://www.w3.org/2000/svg">
<path fill-rule="evenodd" clip-rule="evenodd" d="M10.4446 0C10.7581 0 11.0588 0.131694 11.2805 0.366119L12.9523 2.13388C13.174 2.36831 13.2986 2.68624 13.2986 3.01777V11.875C13.2986 12.9106 12.5047 13.75 11.5253 13.75H2.06793C1.08859 13.75 0.294678 12.9106 0.294678 11.875V1.875C0.294678 0.839469 1.08859 0 2.06793 0H10.4446ZM2.06793 1.25C1.74149 1.25 1.47685 1.52982 1.47685 1.875V11.875C1.47685 12.2202 1.74149 12.5 2.06793 12.5H2.65902V8.75C2.65902 7.71444 3.45293 6.875 4.43227 6.875H9.16096C10.1403 6.875 10.9342 7.71444 10.9342 8.75V12.5H11.5253C11.8518 12.5 12.1164 12.2202 12.1164 11.875V3.64277C12.1164 3.31124 11.9918 2.99331 11.7701 2.75888L10.6894 1.61612C10.4677 1.38169 10.167 1.25 9.85347 1.25H9.75204V2.5C9.75204 3.53553 8.95816 4.375 7.97879 4.375H5.61445C4.63511 4.375 3.84119 3.53553 3.84119 2.5V1.25H2.06793ZM9.75204 12.5V8.75C9.75204 8.40481 9.48741 8.125 9.16096 8.125H4.43227C4.10583 8.125 3.84119 8.40481 3.84119 8.75V12.5H9.75204ZM5.02336 1.25H8.56987V2.5C8.56987 2.84518 8.30524 3.125 7.97879 3.125H5.61445C5.288 3.125 5.02336 2.84518 5.02336 2.5V1.25Z" fill="white" fill-opacity="0.7"/>
</svg>